<svg data-v-fde0c5aa="" xmlns="http://www.w3.org/2000/svg" viewBox="0 0 300 300" class="iconLeft"><!----><defs data-v-fde0c5aa=""><!----></defs><rect data-v-fde0c5aa="" fill="#EAE5FE" x="0" y="0" width="300px" height="300px" class="logo-background-square"></rect><defs data-v-fde0c5aa=""><!----></defs><g data-v-fde0c5aa="" id="b0591529-3646-416c-bb32-eacb2fe9180f" fill="#150355" transform="matrix(2.1838164487615184,0,0,2.1838164487615184,82.32470046613453,131.6996184301229)"><path d="M1.16 13.78L1.16 2.80L6.65 2.80L6.65 4.30L2.88 4.30L2.88 7.54L6.11 7.54L6.11 9.04L2.88 9.04L2.88 13.78L1.16 13.78ZM7.83 13.78L7.83 5.63L9.32 5.63L9.39 6.92L9.44 6.92L9.44 6.92Q9.67 6.26 10.09 5.89L10.09 5.89L10.09 5.89Q10.51 5.51 11.00 5.51L11.00 5.51L11.00 5.51Q11.50 5.51 11.76 5.65L11.76 5.65L11.76 7.20L11.76 7.20Q11.33 7.08 11.05 7.10L11.05 7.10L11.05 7.10Q10.31 7.15 9.91 7.78L9.91 7.78L9.91 7.78Q9.50 8.41 9.50 9.61L9.50 9.61L9.50 13.78L7.83 13.78ZM18.29 9.44L18.29 9.44Q18.29 9.97 18.25 10.19L18.25 10.19L13.77 10.19L13.77 10.19Q13.78 10.86 13.99 11.40L13.99 11.40L13.99 11.40Q14.21 11.94 14.60 12.26L14.60 12.26L14.60 12.26Q15.00 12.57 15.56 12.57L15.56 12.57L15.56 12.57Q16.47 12.57 17.04 11.77L17.04 11.77L18.15 12.37L18.15 12.37Q17.70 13.23 17.03 13.59L17.03 13.59L17.03 13.59Q16.36 13.95 15.50 13.95L15.50 13.95L15.50 13.95Q14.46 13.95 13.70 13.40L13.70 13.40L13.70 13.40Q12.94 12.86 12.54 11.90L12.54 11.90L12.54 11.90Q12.15 10.95 12.15 9.73L12.15 9.73L12.15 9.73Q12.15 8.51 12.47 7.56L12.47 7.56L12.47 7.56Q12.79 6.60 13.50 6.04L13.50 6.04L13.50 6.04Q14.21 5.48 15.31 5.48L15.31 5.48L15.31 5.48Q16.93 5.48 17.61 6.58L17.61 6.58L17.61 6.58Q18.29 7.69 18.29 9.44L18.29 9.44ZM15.34 6.80L15.34 6.80Q14.52 6.80 14.16 7.42L14.16 7.42L14.16 7.42Q13.81 8.05 13.78 9.04L13.78 9.04L16.87 9.04L16.87 9.04Q16.85 8.31 16.72 7.83L16.72 7.83L16.72 7.83Q16.58 7.35 16.25 7.08L16.25 7.08L16.25 7.08Q15.92 6.80 15.34 6.80L15.34 6.80ZM25.25 9.44L25.25 9.44Q25.25 9.97 25.20 10.19L25.20 10.19L20.72 10.19L20.72 10.19Q20.73 10.86 20.95 11.40L20.95 11.40L20.95 11.40Q21.16 11.94 21.56 12.26L21.56 12.26L21.56 12.26Q21.96 12.57 22.51 12.57L22.51 12.57L22.51 12.57Q23.43 12.57 23.99 11.77L23.99 11.77L25.10 12.37L25.10 12.37Q24.65 13.23 23.98 13.59L23.98 13.59L23.98 13.59Q23.31 13.95 22.45 13.95L22.45 13.95L22.45 13.95Q21.41 13.95 20.65 13.40L20.65 13.40L20.65 13.40Q19.89 12.86 19.50 11.90L19.50 11.90L19.50 11.90Q19.10 10.95 19.10 9.73L19.10 9.73L19.10 9.73Q19.10 8.51 19.42 7.56L19.42 7.56L19.42 7.56Q19.74 6.60 20.45 6.04L20.45 6.04L20.45 6.04Q21.16 5.48 22.26 5.48L22.26 5.48L22.26 5.48Q23.88 5.48 24.56 6.58L24.56 6.58L24.56 6.58Q25.25 7.69 25.25 9.44L25.25 9.44ZM22.29 6.80L22.29 6.80Q21.47 6.80 21.12 7.42L21.12 7.42L21.12 7.42Q20.76 8.05 20.73 9.04L20.73 9.04L23.82 9.04L23.82 9.04Q23.80 8.31 23.67 7.83L23.67 7.83L23.67 7.83Q23.54 7.35 23.20 7.08L23.20 7.08L23.20 7.08Q22.87 6.80 22.29 6.80L22.29 6.80ZM26.58 13.78L26.58 2.80L28.24 2.80L28.24 13.78L26.58 13.78ZM32.44 5.48L32.44 5.48Q33.74 5.48 34.50 6.14L34.50 6.14L34.50 6.14Q35.26 6.80 35.26 8.12L35.26 8.12L35.26 13.78L33.83 13.78L33.76 12.54L33.65 12.54L33.65 12.54Q33.46 13.01 33.11 13.33L33.11 13.33L33.11 13.33Q32.76 13.64 32.36 13.80L32.36 13.80L32.36 13.80Q31.96 13.96 31.58 13.96L31.58 13.96L31.58 13.96Q30.95 13.96 30.47 13.69L30.47 13.69L30.47 13.69Q29.99 13.42 29.73 12.94L29.73 12.94L29.73 12.94Q29.46 12.46 29.46 11.85L29.46 11.85L29.46 11.85Q29.46 11.01 29.81 10.43L29.81 10.43L29.81 10.43Q30.15 9.85 30.84 9.42L30.84 9.42L30.84 9.42Q31.38 9.08 32.12 8.85L32.12 8.85L32.12 8.85Q32.85 8.61 33.71 8.50L33.71 8.50L33.71 8.22L33.71 8.22Q33.75 7.46 33.44 7.11L33.44 7.11L33.44 7.11Q33.13 6.76 32.46 6.76L32.46 6.76L32.46 6.76Q31.86 6.76 31.47 7.08L31.47 7.08L31.47 7.08Q31.08 7.39 30.84 7.97L30.84 7.97L29.59 7.36L29.59 7.36Q29.95 6.41 30.68 5.94L30.68 5.94L30.68 5.94Q31.42 5.48 32.44 5.48L32.44 5.48ZM32.09 12.64L32.09 12.64Q32.63 12.63 33.03 12.27L33.03 12.27L33.03 12.27Q33.42 11.92 33.69 11.35L33.69 11.35L33.69 9.67L33.69 9.67Q33.16 9.73 32.68 9.90L32.68 9.90L32.68 9.90Q32.20 10.06 31.84 10.32L31.84 10.32L31.84 10.32Q31.08 10.86 31.08 11.64L31.08 11.64L31.08 11.64Q31.08 11.96 31.22 12.19L31.22 12.19L31.22 12.19Q31.36 12.43 31.59 12.54L31.59 12.54L31.59 12.54Q31.82 12.66 32.09 12.64L32.09 12.64ZM36.95 13.78L36.95 5.63L38.53 5.63L38.59 6.88L38.66 6.88L38.66 6.88Q38.96 6.21 39.46 5.84L39.46 5.84L39.46 5.84Q39.96 5.48 40.63 5.48L40.63 5.48L40.63 5.48Q41.30 5.48 41.81 5.81L41.81 5.81L41.81 5.81Q42.31 6.15 42.59 6.77L42.59 6.77L42.59 6.77Q42.87 7.40 42.87 8.24L42.87 8.24L42.87 13.78L41.21 13.78L41.21 8.41L41.21 8.41Q41.21 7.57 40.92 7.20L40.92 7.20L40.92 7.20Q40.64 6.84 40.08 6.84L40.08 6.84L40.08 6.84Q39.64 6.84 39.31 7.09L39.31 7.09L39.31 7.09Q38.98 7.34 38.80 7.81L38.80 7.81L38.80 7.81Q38.62 8.27 38.62 8.89L38.62 8.89L38.62 13.78L36.95 13.78ZM47.22 13.96L47.22 13.96Q46.14 13.96 45.43 13.39L45.43 13.39L45.43 13.39Q44.72 12.82 44.39 11.86L44.39 11.86L44.39 11.86Q44.06 10.91 44.06 9.73L44.06 9.73L44.06 9.73Q44.06 8.52 44.39 7.56L44.39 7.56L44.39 7.56Q44.72 6.60 45.43 6.04L45.43 6.04L45.43 6.04Q46.14 5.48 47.22 5.48L47.22 5.48L47.22 5.48Q48.40 5.48 49.08 6.08L49.08 6.08L49.08 6.08Q49.76 6.69 50.07 7.91L50.07 7.91L48.69 8.30L48.69 8.30Q48.56 7.55 48.22 7.16L48.22 7.16L48.22 7.16Q47.88 6.77 47.28 6.77L47.28 6.77L47.28 6.77Q46.42 6.77 46.06 7.61L46.06 7.61L46.06 7.61Q45.70 8.44 45.70 9.73L45.70 9.73L45.70 9.73Q45.70 11.01 46.06 11.82L46.06 11.82L46.06 11.82Q46.42 12.64 47.28 12.64L47.28 12.64L47.28 12.64Q47.89 12.64 48.22 12.25L48.22 12.25L48.22 12.25Q48.56 11.87 48.69 11.14L48.69 11.14L50.01 11.47L50.01 11.47Q49.75 12.74 49.06 13.35L49.06 13.35L49.06 13.35Q48.38 13.96 47.22 13.96L47.22 13.96ZM56.81 9.44L56.81 9.44Q56.81 9.97 56.77 10.19L56.77 10.19L52.29 10.19L52.29 10.19Q52.30 10.86 52.51 11.40L52.51 11.40L52.51 11.40Q52.73 11.94 53.13 12.26L53.13 12.26L53.13 12.26Q53.53 12.57 54.08 12.57L54.08 12.57L54.08 12.57Q55.00 12.57 55.56 11.77L55.56 11.77L56.67 12.37L56.67 12.37Q56.22 13.23 55.55 13.59L55.55 13.59L55.55 13.59Q54.88 13.95 54.02 13.95L54.02 13.95L54.02 13.95Q52.98 13.95 52.22 13.40L52.22 13.40L52.22 13.40Q51.46 12.86 51.06 11.90L51.06 11.90L51.06 11.90Q50.67 10.95 50.67 9.73L50.67 9.73L50.67 9.73Q50.67 8.51 50.99 7.56L50.99 7.56L50.99 7.56Q51.31 6.60 52.02 6.04L52.02 6.04L52.02 6.04Q52.73 5.48 53.83 5.48L53.83 5.48L53.83 5.48Q55.45 5.48 56.13 6.58L56.13 6.58L56.13 6.58Q56.81 7.69 56.81 9.44L56.81 9.44ZM53.86 6.80L53.86 6.80Q53.04 6.80 52.68 7.42L52.68 7.42L52.68 7.42Q52.33 8.05 52.30 9.04L52.30 9.04L55.39 9.04L55.39 9.04Q55.37 8.31 55.24 7.83L55.24 7.83L55.24 7.83Q55.10 7.35 54.77 7.08L54.77 7.08L54.77 7.08Q54.44 6.80 53.86 6.80L53.86 6.80ZM58.37 13.78L58.37 2.80L60.07 2.80L60.07 7.55L63.42 7.55L63.42 2.80L65.12 2.80L65.12 13.78L63.42 13.78L63.42 9.02L60.07 9.02L60.07 13.78L58.37 13.78ZM69.25 13.94L69.25 13.94Q68.60 13.94 68.10 13.60L68.10 13.60L68.10 13.60Q67.60 13.27 67.32 12.64L67.32 12.64L67.32 12.64Q67.05 12.02 67.05 11.18L67.05 11.18L67.05 5.63L68.71 5.63L68.71 11.01L68.71 11.01Q68.71 12.58 69.81 12.58L69.81 12.58L69.81 12.58Q70.26 12.58 70.60 12.33L70.60 12.33L70.60 12.33Q70.94 12.07 71.12 11.61L71.12 11.61L71.12 11.61Q71.30 11.14 71.30 10.53L71.30 10.53L71.30 5.63L72.97 5.63L72.97 13.78L71.38 13.78L71.33 12.53L71.26 12.53L71.26 12.53Q70.61 13.94 69.25 13.94L69.25 13.94ZM78.55 5.48L78.55 5.48Q79.41 5.48 80.04 5.95L80.04 5.95L80.04 5.95Q80.67 6.43 81.02 7.38L81.02 7.38L81.02 7.38Q81.36 8.33 81.36 9.71L81.36 9.71L81.36 9.71Q81.36 11.05 81.02 12.00L81.02 12.00L81.02 12.00Q80.68 12.95 80.05 13.46L80.05 13.46L80.05 13.46Q79.41 13.96 78.52 13.96L78.52 13.96L78.52 13.96Q77.81 13.96 77.28 13.58L77.28 13.58L77.28 13.58Q76.75 13.21 76.47 12.53L76.47 12.53L76.41 12.53L76.36 13.78L74.81 13.78L74.81 2.80L76.47 2.80L76.47 6.91L76.53 6.91L76.53 6.91Q76.83 6.21 77.33 5.84L77.33 5.84L77.33 5.84Q77.84 5.48 78.55 5.48L78.55 5.48ZM78.03 12.53L78.03 12.53Q78.50 12.53 78.87 12.23L78.87 12.23L78.87 12.23Q79.25 11.93 79.47 11.29L79.47 11.29L79.47 11.29Q79.69 10.66 79.69 9.70L79.69 9.70L79.69 9.70Q79.69 8.77 79.46 8.15L79.46 8.15L79.46 8.15Q79.24 7.52 78.87 7.22L78.87 7.22L78.87 7.22Q78.49 6.92 78.03 6.92L78.03 6.92L78.03 6.92Q77.53 6.92 77.17 7.26L77.17 7.26L77.17 7.26Q76.81 7.59 76.62 8.22L76.62 8.22L76.62 8.22Q76.43 8.85 76.43 9.70L76.43 9.70L76.43 9.70Q76.43 10.58 76.62 11.22L76.62 11.22L76.62 11.22Q76.81 11.85 77.17 12.19L77.17 12.19L77.17 12.19Q77.53 12.53 78.03 12.53L78.03 12.53Z"></path></g><defs data-v-fde0c5aa=""><linearGradient data-v-fde0c5aa="" gradientTransform="rotate(25)" id="3e548ec4-ffd4-4218-ae7b-0f414cade282" x1="0%" y1="0%" x2="100%" y2="0%"><stop data-v-fde0c5aa="" offset="0%" stop-color="#410FF8" stop-opacity="1"></stop><stop data-v-fde0c5aa="" offset="100%" stop-color="#410FF8" stop-opacity="1"></stop></linearGradient></defs><g data-v-fde0c5aa="" id="45c73965-0881-49d7-a47b-77b0879539db" stroke="none" fill="url(#3e548ec4-ffd4-4218-ae7b-0f414cade282)" transform="matrix(0.5709306076951728,0,0,0.5709306076951728,37.0882539552028,131.1680559678367)"><path d="M26.6 27.2c-2.5 1.7.7 1.3-9.7 5.6-2.6 1.1-4.5 3.5-5 6.3H10c-1.1 0-2 .9-2 2V63H6.1c-.6 0-1 .4-1 1s.4 1 1 1h53.8c.6 0 1-.4 1-1s-.4-1-1-1H58V41.1c0-1.1-.9-2-2-2h-1.9c-.5-2.8-2.3-5.2-5-6.3-10.7-4.5-7.1-4-9.4-5.6v-5.6c1.5-2.2 2.3-4.2 2.4-4.6 3.5-6.8 2.2-13.6-5.3-15.6-6.4-1.7-19.7 1.3-12.6 15 .1.4.9 2.5 2.4 4.9v5.9zm13.6-10.8c-1.2 3.2-3.5 7.3-7 7.2-3.4 0-6-4.5-7.1-7.6.4-2.2 2.1-4.6 4.3-4.6 2 0 4.1 1.4 4.3 1.7.2.3.5.4.8.4.3 0 .6-.1.8-.3l2-2.2c.9.8 2.4 2.6 1.9 5.4zM33 29.1L28.6 27v-3.2c1.2 1.1 2.9 1.8 4.6 1.8 1.6 0 3.2-.6 4.4-1.6v3L33 29.1zm-5.2-.2l3.7 1.8-2 3.2-3.3-3.5 1.6-1.5zM56 63H10V41.1h46.1L56 63zm-3.9-23.9H13.9c.5-2 1.8-3.6 3.7-4.4 3.1-1.3 5.8-2.6 7-3.2l4.3 4.7c.4.5 1.2.4 1.6-.1l2.4-3.9 2.4 3.9c.3.6 1.1.6 1.6.1l4.3-4.7c1.2.6 3.9 1.9 7 3.2 2.1.8 3.4 2.4 3.9 4.4zm-15.7-5.3l-2-3.1 4-1.8 1.3 1.4-3.3 3.5zm-12-26.2C26.6 1 44.1.3 41.7 12.2c-.7-1.5-3.1-4.5-4.3-3.2l-1.9 2.2c-4-2.9-8.4-2.3-10.6 2.1-.8-2.3-1-4.2-.5-5.7z"></path><path d="M45.5 51h-6.6c-.5-2.8-2.9-5-5.9-5-3 0-5.4 2.2-5.9 5h-7c-.6 0-1 .4-1 1s.4 1 1 1h7c.5 2.8 2.9 5 5.9 5 3 0 5.4-2.2 5.9-5h6.6c.6 0 1-.4 1-1 0-.5-.4-1-1-1zM33 56c-2.2 0-4-1.8-4-4s1.8-4 4-4 4 1.8 4 4-1.8 4-4 4z"></path></g><!----></svg>